<svg width="32" height="32" viewBox="0 0 32 32" fill="none" xmlns="http://www.w3.org/2000/svg">
<path fill-rule="evenodd" clip-rule="evenodd" d="M16.0007 29.333C23.3644 29.333 29.334 23.3635 29.334 15.9997C29.334 8.63588 23.3644 2.66634 16.0007 2.66634C8.63685 2.66634 2.66732 8.63588 2.66732 15.9997C2.66732 23.3635 8.63685 29.333 16.0007 29.333ZM18.7718 17.3566L18.7718 14.1139C18.7718 13.5616 19.2195 13.1139 19.7718 13.1139C20.3241 13.1139 20.7718 13.5616 20.7718 14.1139L20.7718 18.4374C20.7718 19.7261 19.7271 20.7708 18.4384 20.7708L14.1149 20.7708C13.5626 20.7708 13.1149 20.3231 13.1149 19.7708C13.1149 19.2185 13.5626 18.7708 14.1149 18.7708L17.3575 18.7708L11.5222 12.9355C11.1317 12.5449 11.1317 11.9118 11.5222 11.5213C11.9127 11.1307 12.5459 11.1307 12.9364 11.5213L18.7718 17.3566Z" fill="#E6D6BF"/>
</svg>
