<svg width="24" height="24" viewBox="0 0 24 24" fill="none" xmlns="http://www.w3.org/2000/svg">
<path fill-rule="evenodd" clip-rule="evenodd" d="M17 2C19.7614 2 22 4.23858 22 7V17C22 19.7614 19.7614 22 17 22H7C4.23858 22 2 19.7614 2 17V7C2 4.23858 4.23858 2 7 2H17ZM12.7626 11.8232C12.8602 11.9209 12.8602 12.0791 12.7626 12.1768L10.4697 14.4697C10.1768 14.7626 10.1768 15.2374 10.4697 15.5303C10.7626 15.8232 11.2374 15.8232 11.5303 15.5303L13.8232 13.2374C14.5066 12.554 14.5066 11.446 13.8232 10.7626L11.5303 8.46967C11.2374 8.17678 10.7626 8.17678 10.4697 8.46967C10.1768 8.76256 10.1768 9.23744 10.4697 9.53033L12.7626 11.8232Z" fill="#e5f33c"/>
</svg>
