<svg xmlns="http://www.w3.org/2000/svg" width="12" height="12" viewBox="0 0 12 12">
  <g id="그룹_5360" data-name="그룹 5360" transform="translate(-132 -2)">
    <circle id="타원_27" data-name="타원 27" cx="6" cy="6" r="6" transform="translate(132 2)" fill="#2a3249"/>
    <path id="패스_83" data-name="패스 83" d="M138.725,275.227l2.431-2.431a.077.077,0,0,0,0-.1l-2.431-2.432a.079.079,0,0,0-.1,0l-.311.311,1.915,1.915h-5.252a.283.283,0,0,0-.258.284h0a.278.278,0,0,0,.258.258H140.2l-1.889,1.889.311.309a.077.077,0,0,0,.1,0Z" transform="translate(0.285 -264.744)" fill="#fff" fill-rule="evenodd"/>
  </g>
</svg>
