<svg width="18" height="18" viewBox="0 0 18 18" fill="none" xmlns="http://www.w3.org/2000/svg">
<circle cx="9" cy="9" r="8.5" stroke="#999999"/>
<path d="M8.12446 11.359H9.51502C9.51502 10.3462 9.66953 10.1667 10.2876 9.70513C10.9313 9.23077 12 8.32051 12 6.98718C12 5.08974 10.3906 4 8.88412 4C7.57082 4 6.41202 5 6 6.35897L7.33906 6.74359C7.59657 5.85897 8.16309 5.38461 8.88412 5.38461C9.84979 5.38461 10.6094 5.89744 10.6094 6.98718C10.6094 7.66667 10.0429 8.16667 9.46352 8.60256C8.67811 9.16667 8.12446 9.79487 8.12446 11.359ZM8.07296 13.2308C8.07296 13.6667 8.34335 14 8.83262 14C9.32189 14 9.59227 13.6667 9.59227 13.2308C9.59227 12.8205 9.32189 12.4872 8.83262 12.4872C8.34335 12.4872 8.07296 12.8205 8.07296 13.2308Z" fill="#999999"/>
</svg>
