<?xml version="1.0" encoding="utf-8"?>

<!DOCTYPE svg PUBLIC "-//W3C//DTD SVG 1.1//EN" "http://www.w3.org/Graphics/SVG/1.1/DTD/svg11.dtd">
<!-- Uploaded to: SVG Repo, www.svgrepo.com, Generator: SVG Repo Mixer Tools -->
<svg height="800px" width="800px" version="1.1" id="_x32_" xmlns="http://www.w3.org/2000/svg" xmlns:xlink="http://www.w3.org/1999/xlink" 
	 viewBox="0 0 512 512"  xml:space="preserve">
<style type="text/css">
	.st0{fill:#0d334b;}
</style>
<g>
	<path class="st0" d="M502.636,303.802l-36.36-30.11c-6.425-3.575-10.42-10.359-10.42-17.692c0-7.34,3.995-14.118,10.42-17.686
		l36.36-30.124c7.299-4.043,10.894-12.546,8.748-20.625c-2.174-8.063-9.54-13.63-17.896-13.494l-46.556-7.902
		c-7.333,0.135-14.178-3.731-17.862-10.109c-3.67-6.358-3.595-14.212,0.183-20.502l16.433-44.275
		c4.299-7.163,3.162-16.331-2.742-22.228c-5.91-5.912-15.065-7.042-22.235-2.742l-44.254,16.44
		c-6.31,3.771-14.172,3.839-20.522,0.156c-6.371-3.67-10.231-10.502-10.116-17.841l-7.901-46.563
		c0.135-8.342-5.43-15.736-13.494-17.882c-8.064-2.16-16.569,1.435-20.624,8.748l-30.11,36.366
		c-3.568,6.412-10.339,10.407-17.678,10.407c-7.354,0-14.131-3.995-17.706-10.407L208.198,9.371
		c-4.042-7.313-12.567-10.908-20.624-8.748c-8.071,2.146-13.636,9.54-13.494,17.882l-7.895,46.563
		c0.122,7.34-3.758,14.171-10.129,17.841c-6.345,3.684-14.212,3.616-20.509-0.156l-44.268-16.44
		c-7.163-4.3-16.318-3.169-22.229,2.742c-5.904,5.897-7.035,15.065-2.742,22.228l16.44,44.275c3.778,6.29,3.846,14.144,0.163,20.502
		c-3.67,6.378-10.495,10.244-17.855,10.109l-46.55,7.902c-8.348-0.136-15.728,5.43-17.889,13.494
		c-2.146,8.078,1.436,16.582,8.735,20.625l36.373,30.124c6.432,3.568,10.413,10.346,10.413,17.686
		c0,7.333-3.981,14.117-10.413,17.692l-36.373,30.11c-7.299,4.056-10.88,12.567-8.735,20.638c2.16,8.05,9.54,13.622,17.889,13.487
		l46.55,7.881c7.36-0.115,14.185,3.758,17.855,10.129c3.683,6.358,3.616,14.219-0.163,20.509l-16.44,44.268
		c-4.293,7.164-3.162,16.325,2.742,22.235c5.911,5.905,15.066,7.042,22.229,2.742l44.268-16.44
		c6.297-3.778,14.164-3.839,20.509-0.176c6.371,3.676,10.251,10.508,10.129,17.861l7.895,46.563
		c-0.142,8.349,5.423,15.729,13.494,17.882c8.057,2.146,16.582-1.442,20.624-8.741l30.103-36.373
		c3.575-6.419,10.352-10.413,17.706-10.413c7.34,0,14.11,3.994,17.678,10.413l30.11,36.373c4.055,7.299,12.56,10.887,20.624,8.741
		c8.064-2.153,13.63-9.533,13.494-17.882l7.901-46.563c-0.115-7.353,3.745-14.185,10.116-17.861
		c6.351-3.664,14.212-3.602,20.522,0.176l44.254,16.44c7.17,4.3,16.325,3.162,22.235-2.742c5.905-5.91,7.042-15.072,2.742-22.235
		l-16.433-44.268c-3.778-6.29-3.853-14.151-0.183-20.509c3.684-6.371,10.529-10.244,17.862-10.129l46.556-7.881
		c8.356,0.135,15.722-5.437,17.896-13.487C513.531,316.369,509.935,307.858,502.636,303.802z M143.401,248.931
		c-0.007-2.993,1.158-5.803,3.277-7.922l19.311-19.325l-20.394-20.387c-4.36-4.353-4.36-11.45,0-15.803
		c2.12-2.112,4.929-3.27,7.908-3.27s5.789,1.165,7.895,3.27l20.394,20.387l20.401-20.387c2.106-2.106,4.909-3.27,7.888-3.27
		c2.986,0,5.789,1.158,7.901,3.264c2.12,2.12,3.291,4.923,3.291,7.909c-0.007,2.986-1.171,5.789-3.284,7.901l-20.401,20.387
		l19.317,19.325c2.12,2.119,3.284,4.929,3.278,7.922c0,2.979-1.165,5.782-3.284,7.888c-2.113,2.106-4.916,3.27-7.895,3.27
		c-2.979,0-5.782-1.165-7.902-3.278l-19.31-19.317l-19.311,19.317c-2.119,2.113-4.922,3.278-7.901,3.278
		c-2.986,0-5.79-1.165-7.902-3.278C144.565,254.713,143.401,251.91,143.401,248.931z M354.53,341.218
		c-4.259,0-8.308-0.908-11.809-2.634c-2.789-1.374-5.328-3.23-7.989-5.844c-1.361-1.381-2.539-2.681-3.623-3.886
		c-1.842-2.032-3.426-3.792-4.8-4.679c-1.334-0.86-2.43-1.307-4.712-1.341c-1.828,0.014-2.81,0.365-3.596,0.752
		c-0.955,0.467-1.93,1.205-3.169,2.411c-0.833,0.806-1.659,1.74-2.553,2.755c-2.133,2.411-4.78,5.41-8.558,8.01
		c-2.979,2.038-7.935,4.456-14.686,4.456h-0.285c-4.232,0-8.281-0.908-11.774-2.634c-2.796-1.374-5.322-3.236-7.969-5.85
		c-1.368-1.381-2.559-2.701-3.657-3.913c-1.828-2.018-3.399-3.765-4.76-4.638c-1.347-0.867-2.437-1.313-4.713-1.347
		c-1.699,0.014-2.674,0.311-3.602,0.766c-0.941,0.453-1.902,1.191-3.128,2.39c-0.853,0.813-1.68,1.76-2.573,2.783
		c-2.126,2.403-4.767,5.396-8.531,7.989c-2.972,2.032-7.929,4.456-14.686,4.456c-4.51,0-8.552-0.908-12.046-2.634
		c-2.796-1.374-5.403-3.291-7.976-5.864c-1.388-1.395-2.607-2.742-3.731-3.988c-1.788-1.984-3.331-3.69-4.665-4.55
		c-1.334-0.873-2.418-1.313-4.7-1.347c-1.814,0.014-2.809,0.372-3.609,0.758c-0.928,0.46-1.922,1.219-3.121,2.397
		c-0.86,0.82-1.692,1.774-2.593,2.796c-2.12,2.404-4.753,5.39-8.511,7.976c-2.986,2.038-7.949,4.456-14.686,4.456
		c-5.349,0-9.5-4.151-9.5-9.249c0-5.099,4.15-9.249,9.249-9.249c1.848,0,2.857-0.365,3.67-0.758
		c0.928-0.454,1.923-1.218,3.094-2.383c0.887-0.846,1.72-1.794,2.62-2.817c2.119-2.39,4.746-5.369,8.497-7.956
		c2.972-2.038,7.949-4.469,14.781-4.469c4.401,0,8.47,0.922,11.971,2.655c3.595,1.76,6.263,4.17,7.955,5.837
		c1.382,1.394,2.573,2.715,3.67,3.94c1.815,2.011,3.386,3.751,4.746,4.632c1.334,0.86,2.417,1.3,4.666,1.32
		c1.814,0,2.809-0.358,3.615-0.752c0.928-0.453,1.924-1.219,3.128-2.404c0.86-0.826,1.693-1.768,2.593-2.79
		c2.12-2.39,4.754-5.376,8.511-7.969c2.972-2.038,7.949-4.469,14.781-4.469c4.38,0,8.444,0.922,11.957,2.655
		c3.602,1.754,6.277,4.157,7.969,5.809c1.395,1.415,2.594,2.743,3.697,3.968c1.815,2.011,3.386,3.751,4.74,4.632
		c1.334,0.86,2.424,1.3,4.686,1.32c1.693,0,2.695-0.304,3.663-0.765c0.908-0.44,1.902-1.206,3.094-2.384
		c0.874-0.84,1.706-1.78,2.614-2.803c2.119-2.397,4.76-5.369,8.511-7.962c2.986-2.038,7.963-4.469,14.788-4.469
		c4.394,0,8.463,0.922,11.978,2.655c3.609,1.767,6.276,4.164,7.962,5.809c1.388,1.409,2.587,2.736,3.684,3.955
		c1.82,2.018,3.399,3.764,4.76,4.645c1.327,0.86,2.417,1.3,4.692,1.32c5.065,0,9.209,4.15,9.209,9.249
		C363.773,337.067,359.629,341.218,354.53,341.218z M365.309,241.009c4.347,4.367,4.347,11.456,0,15.802
		c-2.106,2.113-4.909,3.278-7.894,3.278c-2.986,0-5.789-1.165-7.909-3.278l-19.31-19.317l-19.317,19.317
		c-2.113,2.113-4.916,3.278-7.902,3.278c-2.986,0-5.789-1.165-7.901-3.278c-2.113-2.098-3.278-4.902-3.278-7.881
		c-0.007-2.993,1.158-5.803,3.278-7.922l19.317-19.325l-20.394-20.387c-2.112-2.112-3.277-4.916-3.277-7.901
		c0-2.986,1.165-5.789,3.277-7.902c2.106-2.106,4.916-3.27,7.901-3.27c2.986,0,5.796,1.158,7.909,3.27l20.387,20.387l20.394-20.387
		c2.113-2.112,4.923-3.27,7.901-3.27c2.986,0,5.796,1.165,7.902,3.27c4.347,4.36,4.347,11.443,0,15.803l-20.394,20.387
		L365.309,241.009z"/>
</g>
</svg>