<svg width="40" height="40" viewBox="0 0 40 40" fill="none" xmlns="http://www.w3.org/2000/svg">
<path d="M18.2867 4.51444C19.064 3.2228 20.9366 3.22279 21.7139 4.51443L25.598 10.9684C25.8773 11.4325 26.3328 11.7634 26.8604 11.8856L34.1987 13.5852C35.6674 13.9253 36.246 15.7063 35.2578 16.8447L30.3199 22.533C29.9649 22.942 29.7909 23.4775 29.8378 24.017L30.489 31.5214C30.6194 33.0233 29.1044 34.124 27.7164 33.5359L20.7805 30.5975C20.2818 30.3863 19.7188 30.3863 19.2201 30.5975L12.2843 33.5359C10.8962 34.124 9.38126 33.0233 9.5116 31.5214L10.1629 24.017C10.2097 23.4775 10.0357 22.942 9.68071 22.533L4.74283 16.8447C3.75462 15.7063 4.33328 13.9253 5.8019 13.5852L13.1403 11.8856C13.6679 11.7634 14.1234 11.4325 14.4026 10.9684L18.2867 4.51444Z" fill="#FFC633" stroke="black" stroke-width="2.5"/>
</svg>
