<svg width="24" height="24" viewBox="0 0 24 24" fill="none" xmlns="http://www.w3.org/2000/svg">
<path fill-rule="evenodd" clip-rule="evenodd" d="M9.35572 1.57796C10.2026 1.36366 11.0888 1.25 12.0005 1.25C12.9123 1.25 13.7985 1.36368 14.6455 1.578C15.3367 1.75292 15.6936 2.34983 15.8084 2.84603C15.9444 3.43381 16.3132 3.96329 16.8756 4.28798C17.3927 4.5865 17.9772 4.65663 18.5164 4.52952C19.0119 4.41269 19.7038 4.46835 20.1668 5.00871C21.0277 6.01337 21.7067 7.17937 22.1523 8.45569C22.4183 9.21767 22.0062 9.90381 21.571 10.2624C21.0687 10.6762 20.7505 11.3006 20.7505 12C20.7505 12.6994 21.0687 13.3238 21.571 13.7376C22.0062 14.0962 22.4183 14.7823 22.1523 15.5443C21.7068 16.8205 21.0278 17.9864 20.1671 18.991C19.704 19.5314 19.0121 19.587 18.5165 19.4702C17.9773 19.343 17.3927 19.4131 16.8756 19.7117C16.3131 20.0364 15.9443 20.566 15.8083 21.1538C15.6935 21.6501 15.3366 22.2471 14.6453 22.422C13.7984 22.6363 12.9122 22.75 12.0005 22.75C11.0889 22.75 10.2027 22.6363 9.3558 22.4221C8.66453 22.2471 8.30762 21.6501 8.19284 21.1538C8.05688 20.566 7.688 20.0364 7.12555 19.7117C6.60843 19.4131 6.02378 19.343 5.48457 19.4702C4.989 19.5871 4.29703 19.5314 3.83397 18.991C2.97324 17.9864 2.29425 16.8205 1.84872 15.5443C1.58271 14.7823 1.99487 14.0962 2.43003 13.7376C2.93235 13.3238 3.25054 12.6994 3.25054 12C3.25054 11.3006 2.93235 10.6762 2.43004 10.2623C1.99487 9.9038 1.58271 9.21766 1.84873 8.45567C2.2943 7.17934 2.97339 6.01334 3.83426 5.00867C4.29729 4.4683 4.98917 4.41265 5.48471 4.5295C6.02388 4.65664 6.60848 4.58651 7.12556 4.28798C7.68794 3.96329 8.05679 3.43379 8.1928 2.84601C8.30761 2.3498 8.66452 1.75286 9.35572 1.57796ZM12.0005 15C10.3436 15 9.00049 13.6569 9.00049 12C9.00049 10.3431 10.3436 9 12.0005 9C13.6573 9 15.0005 10.3431 15.0005 12C15.0005 13.6569 13.6573 15 12.0005 15Z" fill="#ffffff80"/>
</svg>
