<svg xmlns="http://www.w3.org/2000/svg" xmlns:xlink="http://www.w3.org/1999/xlink" width="28.008" height="38.075" viewBox="0 0 28.008 38.075">
  <defs>
    <linearGradient id="linear-gradient" x1="0.5" x2="0.5" y2="1" gradientUnits="objectBoundingBox">
      <stop offset="0" stop-color="#fc6075"/>
      <stop offset="1" stop-color="#fe9645"/>
    </linearGradient>
  </defs>
  <g id="그룹_12926" data-name="그룹 12926" transform="translate(-432.511 -541.468)">
    <path id="패스_10548" data-name="패스 10548" d="M453.3,568.932a1,1,0,1,1,1.7,1.032c-1.5,2.48-3.072,4.791-4.373,6.708l-.837,1.243c-.015.022-.031.043-.047.064a3.491,3.491,0,0,1-.9.875v0a4.3,4.3,0,0,1-4.667,0l0,0v0a3.466,3.466,0,0,1-.946-.941c-.776-1.152-.8-1.182-.837-1.241-3.81-5.612-9.885-14.561-9.885-21.2a14,14,0,0,1,28.008,0,15.729,15.729,0,0,1-.7,4.349,31.47,31.47,0,0,1-1.757,4.531,1,1,0,0,1-1.807-.845,29.566,29.566,0,0,0,1.648-4.242,13.745,13.745,0,0,0,.613-3.793,12,12,0,1,0-24,0c0,6.04,5.859,14.671,9.533,20.082.55.81.6.872.845,1.241a1.479,1.479,0,0,0,.407.4v0a2.332,2.332,0,0,0,2.435,0v0l0,0a1.469,1.469,0,0,0,.375-.357l.028-.044c.207-.307.3-.434.846-1.243,1.289-1.9,2.845-4.19,4.319-6.621" fill="#414141"/>
    <path id="패스_10549" data-name="패스 10549" d="M468.228,567.394a6.428,6.428,0,1,1-6.429,6.428,6.428,6.428,0,0,1,6.429-6.428" transform="translate(-18.62 -16.483)" fill-rule="evenodd" fill="url(#linear-gradient)"/>
    <path id="패스_10550" data-name="패스 10550" d="M453.5,564.953a1,1,0,1,1-1.674-1.087,7.42,7.42,0,1,1-1.144,4.854,1,1,0,0,1,1.987-.219,5.43,5.43,0,1,0,.831-3.548" transform="translate(-11.546 -12.078)" fill="#414141"/>
  </g>
</svg>
