<svg width="24" height="24" viewBox="0 0 24 24" fill="none" xmlns="http://www.w3.org/2000/svg">
<g id="Iconex/Two Tone/Location">
<g id="Location">
<path id="Subtract" opacity="0.3" fill-rule="evenodd" clip-rule="evenodd" d="M12 1.75C7.17493 1.75 3.25 5.62281 3.25 10.4167C3.25 13.3982 4.98872 16.3409 6.83144 18.4829C7.76395 19.5669 8.75371 20.482 9.62674 21.1328C10.0626 21.4577 10.4814 21.7258 10.8595 21.9162C11.214 22.0947 11.6188 22.25 12 22.25C12.3812 22.25 12.786 22.0947 13.1405 21.9162C13.5186 21.7258 13.9374 21.4577 14.3733 21.1328C15.2463 20.482 16.236 19.5669 17.1686 18.4829C19.0113 16.3409 20.75 13.3982 20.75 10.4167C20.75 5.62281 16.8251 1.75 12 1.75Z" fill="black"/>
<circle id="Ellipse 33" r="3" transform="matrix(-1 0 0 1 12 10)" fill="black"/>
</g>
</g>
</svg>
